<?xml version="1.0" encoding="utf-8"?>
<!-- Generator: Adobe Illustrator 19.2.1, SVG Export Plug-In . SVG Version: 6.00 Build 0)  -->
<svg version="1.1" id="Layer_1" xmlns="http://www.w3.org/2000/svg" xmlns:xlink="http://www.w3.org/1999/xlink" x="0px" y="0px"
	 viewBox="0 0 129.8 26.1" style="enable-background:new 0 0 129.8 26.1;" xml:space="preserve">
<style type="text/css">
	.st0{fill:#F4B11B;}
	.st1{fill:#0B213F;}
	.st2{fill:#FFFFFF;}
</style>
<g>
	<g>
		<g>
			<path class="st0" d="M19.1,0H1C0.5,0,0.1,0.4,0.1,0.9v18.2C0.1,19.6,0.5,20,1,20h5.4l3.2,3.2c0.3,0.3,0.7,0.3,0.9,0l3.2-3.2h5.4
				c0.5,0,0.9-0.4,0.9-0.9V0.9C20.1,0.4,19.6,0,19.1,0z"/>
		</g>
		<g>
			<path class="st0" d="M10.1,26.1C6,26.1,0,25.4,0,23.5c0-1.5,3.4-2.1,5.4-2.4c0.2,0,0.4,0.1,0.4,0.3c0,0.2-0.1,0.4-0.3,0.4
				c-3.4,0.4-4.7,1.2-4.7,1.6c0,0.7,3.2,1.9,9.3,1.9s9.3-1.2,9.3-1.9c0-0.4-1.2-1.1-4.5-1.6c-0.2,0-0.3-0.2-0.3-0.4
				c0-0.2,0.2-0.4,0.4-0.3c1.9,0.3,5.1,0.9,5.1,2.3C20.1,25.4,14.1,26.1,10.1,26.1z"/>
		</g>
		<g>
			<path class="st1" d="M3.4,17c-0.1,0-0.3-0.1-0.3-0.3v-10c0-0.1,0.1-0.3,0.3-0.3s0.3,0.1,0.3,0.3v10C3.6,16.8,3.5,17,3.4,17z"/>
		</g>
		<g>
			<path class="st1" d="M16.8,17c-0.1,0-0.3-0.1-0.3-0.3v-10c0-0.1,0.1-0.3,0.3-0.3S17,6.5,17,6.7v10C17,16.8,16.9,17,16.8,17z"/>
		</g>
		<g>
			<path class="st1" d="M4.2,7.3C3.7,7.3,3.3,7.1,3,6.8c-0.7-1,0.1-2.9,0.1-3c0-0.1,0.1-0.2,0.2-0.2h13.4c0.1,0,0.2,0.1,0.2,0.1
				c0,0.1,0.7,1.6,0.1,2.7c-0.2,0.5-0.7,0.8-1.2,0.9c-0.1,0-1.2-0.1-1.7-1.1c-0.3,0.6-0.7,1.2-1.5,1.2c-0.4,0-0.8-0.1-1-0.4
				c-0.1-0.1-0.2-0.3-0.3-0.5c-0.3,0.5-0.7,0.9-1.5,0.9c-0.4,0-0.8-0.1-1.1-0.4C8.7,6.7,8.6,6.6,8.5,6.4C8.2,6.9,7.8,7.3,7.1,7.3
				C6.4,7.3,6,6.9,5.8,6.4C5.3,7.3,4.4,7.3,4.4,7.3l0,0C4.3,7.3,4.3,7.3,4.2,7.3z M3.5,4.1C3.3,4.7,3,5.9,3.4,6.5
				c0.2,0.2,0.5,0.3,0.9,0.3c0.1,0,1.1,0,1.2-1.4c0-0.1,0.1-0.2,0.3-0.2c0.1,0,0.2,0.1,0.2,0.2c0,0.1,0.1,1.4,1.1,1.4
				c1,0,1.2-1.3,1.2-1.4c0-0.1,0.1-0.2,0.3-0.2c0.1,0,0.2,0.1,0.2,0.3c0,0,0,0.7,0.4,1.1c0.2,0.2,0.4,0.3,0.7,0.3
				c1.1,0,1.3-1.3,1.3-1.4c0-0.1,0.1-0.2,0.3-0.2c0.1,0,0.2,0.1,0.2,0.3c0,0,0,0.7,0.4,1.1c0.2,0.2,0.4,0.3,0.7,0.3
				C13.8,6.8,14,5.1,14,5c0-0.1,0.1-0.2,0.3-0.2c0.1,0,0.2,0.1,0.2,0.2c0,1.6,1.3,1.7,1.4,1.7c0.4-0.1,0.7-0.3,0.8-0.6
				c0.4-0.7,0-1.7-0.1-2.1H3.5z"/>
		</g>
		<g>
			<path class="st1" d="M4.7,8.6v7.6h3.5V8.6H4.7z M7.2,12.9c-0.2,0-0.4-0.2-0.4-0.4c0-0.2,0.2-0.4,0.4-0.4s0.4,0.2,0.4,0.4
				C7.6,12.7,7.5,12.9,7.2,12.9z"/>
		</g>
		<g>
			<path class="st1" d="M9.2,8.6v7.6h6.3V8.6H9.2z M11.2,13.4c-0.1,0-0.1,0-0.2-0.1C11,13.2,11,13,11,12.9l1-1.2
				c0.1-0.1,0.2-0.1,0.4,0c0.1,0.1,0.1,0.2,0,0.4l-1,1.2C11.4,13.3,11.3,13.4,11.2,13.4z M13.7,12l-1,1.2c0,0.1-0.1,0.1-0.2,0.1
				c-0.1,0-0.1,0-0.2-0.1c-0.1-0.1-0.1-0.2,0-0.4l1-1.2c0.1-0.1,0.2-0.1,0.4,0C13.8,11.8,13.8,11.9,13.7,12z"/>
		</g>
	</g>
	<g>
		<path class="st2" d="M29.8,11.6c-1.9-0.4-2.1-0.9-2.1-1.4c0-0.7,0.6-1.1,1.5-1.1c0.8,0,1.4,0.2,2,0.7c0.1,0.1,0.3,0.1,0.4,0.1
			c0.4,0,0.7-0.3,0.7-0.7c0-0.2-0.1-0.4-0.3-0.6c-0.8-0.6-1.7-0.9-2.8-0.9c-1.7,0-3,1.1-3,2.6c0,1.7,1.2,2.3,3,2.7
			c1.8,0.4,2,0.8,2,1.4c0,0.7-0.7,1.2-1.6,1.2c-1,0-1.7-0.3-2.5-0.9c-0.1-0.1-0.3-0.2-0.5-0.2c-0.4,0-0.7,0.3-0.7,0.7
			c0,0.2,0.1,0.4,0.3,0.6c1,0.8,2.1,1.2,3.3,1.2c1.8,0,3.1-1.1,3.1-2.6C32.7,12.5,31.1,11.9,29.8,11.6z"/>
		<path class="st2" d="M37.3,9.9c-0.8,0-1.4,0.2-1.9,0.7V8.2c0-0.4-0.3-0.7-0.7-0.7c-0.4,0-0.7,0.3-0.7,0.7v7.9
			c0,0.4,0.3,0.7,0.7,0.7s0.7-0.3,0.7-0.7V13c0-1,0.7-1.7,1.6-1.7c0.9,0,1.5,0.6,1.5,1.6v3.2c0,0.4,0.3,0.7,0.7,0.7
			c0.4,0,0.7-0.3,0.7-0.7v-3.4C39.9,11,38.9,9.9,37.3,9.9z"/>
		<path class="st2" d="M44.5,9.9c-2,0-3.5,1.5-3.5,3.5v0c0,1.9,1.5,3.5,3.5,3.5c2,0,3.5-1.5,3.5-3.5C48,11.5,46.4,9.9,44.5,9.9z
			 M44.5,15.6c-1.1,0-2-0.9-2-2.2c0-1.2,0.9-2.1,2-2.1c1.2,0,2.1,1,2.1,2.2v0C46.5,14.7,45.6,15.6,44.5,15.6z"/>
		<path class="st2" d="M52.7,9.9c-0.8,0-1.5,0.3-2.1,0.9v-0.1c0-0.4-0.3-0.7-0.7-0.7c-0.4,0-0.7,0.3-0.7,0.7V18
			c0,0.4,0.3,0.7,0.7,0.7s0.7-0.3,0.7-0.7v-2c0.6,0.6,1.3,0.9,2.1,0.9c1.6,0,3.2-1.2,3.2-3.5C55.9,11.1,54.2,9.9,52.7,9.9z
			 M54.4,13.4L54.4,13.4c0,1.3-0.8,2.2-1.9,2.2c-1,0-2-0.8-2-2.2c0-1.3,1-2.1,2-2.1C53.5,11.3,54.4,12,54.4,13.4z"/>
		<path class="st2" d="M59.7,12.7c-0.7-0.2-1.4-0.4-1.4-0.8c0-0.4,0.4-0.6,0.9-0.6c0.5,0,1,0.2,1.5,0.5c0.1,0,0.2,0.1,0.3,0.1
			c0.4,0,0.7-0.3,0.7-0.6c0-0.2-0.1-0.5-0.4-0.6c-0.7-0.4-1.4-0.6-2.1-0.6c-1.4,0-2.4,0.8-2.4,2c0,1.4,1.3,1.7,2.2,2
			c0.9,0.3,1.4,0.5,1.4,0.9c0,0.5-0.5,0.7-1,0.7c-0.6,0-1.2-0.2-1.8-0.6c-0.1-0.1-0.2-0.1-0.4-0.1c-0.4,0-0.7,0.3-0.7,0.6
			c0,0.3,0.1,0.4,0.3,0.5h0c0.7,0.5,1.7,0.8,2.5,0.8c1.4,0,2.5-0.9,2.5-2.1C61.8,13.4,60.5,13,59.7,12.7z"/>
		<path class="st2" d="M73.7,7.8c-0.4,0-0.7,0.3-0.7,0.7v5.6l-4.7-5.9C68.2,8,68,7.8,67.7,7.8h-0.1c-0.4,0-0.7,0.3-0.7,0.7v7.6
			c0,0.4,0.3,0.7,0.7,0.7c0.4,0,0.7-0.3,0.7-0.7v-5.8l4.8,6.1c0.2,0.2,0.4,0.4,0.7,0.4c0.4,0,0.7-0.3,0.7-0.7V8.5
			C74.4,8.1,74.1,7.8,73.7,7.8z"/>
		<path class="st2" d="M79,9.9c-1.8,0-3.2,1.5-3.2,3.5c0,2,1.4,3.5,3.3,3.5c1,0,1.8-0.3,2.5-1c0.1-0.1,0.2-0.3,0.2-0.5
			c0-0.5-0.6-0.9-1.1-0.5c-0.5,0.4-1,0.7-1.6,0.7c-1,0-1.7-0.6-1.9-1.6h4.2c0.4,0,0.7-0.3,0.7-0.7C82.1,11.6,81,9.9,79,9.9z
			 M79,11.2c1,0,1.5,0.8,1.7,1.6h-3.4C77.4,11.9,78.1,11.2,79,11.2z"/>
		<path class="st2" d="M85.8,10c-0.8,0-1.4,0.1-2.1,0.4c-0.2,0.1-0.4,0.3-0.4,0.6c0,0.4,0.3,0.6,0.7,0.6c0.1,0,0.2,0,0.3-0.1
			c0.5-0.2,1-0.3,1.5-0.3c1,0,1.6,0.4,1.6,1.3c-0.4-0.1-1-0.2-1.7-0.2c-1.8,0-2.9,0.9-2.9,2.3v0c0,1.4,1.3,2.2,2.6,2.2
			c0.9,0,1.6-0.3,2-0.7c0,0.4,0.3,0.6,0.7,0.6c0.4,0,0.7-0.3,0.7-0.7v-3.4c0-0.8-0.2-1.5-0.7-2C87.5,10.2,86.8,10,85.8,10z
			 M85.5,15.7c-0.6,0-1.3-0.3-1.3-1c0-0.7,0.6-1,1.6-1c0.5,0,1,0.1,1.6,0.2v0.4C87.4,15.1,86.6,15.7,85.5,15.7z"/>
		<path class="st2" d="M93.5,10c-0.7,0-1.4,0.4-1.9,1v-0.3c0-0.4-0.3-0.7-0.7-0.7c-0.4,0-0.7,0.3-0.7,0.7v5.4c0,0.4,0.3,0.7,0.7,0.7
			c0.4,0,0.7-0.3,0.7-0.7V14c0-1.5,0.7-2.4,2-2.6c0.4-0.1,0.6-0.3,0.6-0.7C94.2,10.3,93.9,10,93.5,10z"/>
		<path class="st2" d="M98.6,9.9c-0.8,0-1.5,0.3-2.1,0.9V8.2c0-0.4-0.3-0.7-0.7-0.7c-0.4,0-0.7,0.3-0.7,0.7v7.9
			c0,0.4,0.3,0.7,0.7,0.7s0.7-0.3,0.7-0.7V16c0.6,0.6,1.3,0.9,2.1,0.9c1.6,0,3.2-1.2,3.2-3.5C101.8,11.1,100.2,9.9,98.6,9.9z
			 M100.4,13.4L100.4,13.4c0,1.3-0.8,2.2-1.9,2.2c-1,0-2-0.8-2-2.2c0-1.3,1-2.1,2-2.1C99.4,11.3,100.4,12,100.4,13.4z"/>
		<path class="st2" d="M108,10c-0.3,0-0.6,0.2-0.7,0.5l-1.7,4.3l-1.9-4.3c-0.2-0.4-0.5-0.5-0.7-0.5c-0.4,0-0.7,0.3-0.7,0.7
			c0,0.1,0,0.2,0.1,0.4l2.5,5.4c-0.4,0.8-0.6,1-1,1c-0.3,0-0.4,0-0.6-0.1c-0.1,0-0.2-0.1-0.3-0.1c-0.4,0-0.6,0.3-0.6,0.6
			c0,0.3,0.2,0.5,0.4,0.6l0,0c0.3,0.1,0.6,0.2,1.1,0.2c1.1,0,1.7-0.6,2.3-1.9l2.4-5.8c0-0.1,0.1-0.2,0.1-0.3
			C108.7,10.3,108.4,10,108,10z"/>
		<path class="st2" d="M121.4,7.8h-0.1c-0.3,0-0.5,0.1-0.7,0.4l-2.8,4.2L115,8.2c-0.2-0.2-0.4-0.4-0.7-0.4h-0.1
			c-0.4,0-0.7,0.3-0.7,0.7v7.6c0,0.4,0.3,0.7,0.7,0.7c0.4,0,0.7-0.3,0.7-0.7v-5.4l2.2,3.3c0.3,0.5,0.9,0.5,1.2,0l2.2-3.3v5.4
			c0,0.4,0.3,0.7,0.7,0.7c0.4,0,0.7-0.3,0.7-0.7V8.6C122.1,8.2,121.8,7.8,121.4,7.8z"/>
		<path class="st2" d="M129.8,13.3c0-1.7-1.1-3.4-3.1-3.4c-1.8,0-3.2,1.5-3.2,3.5c0,2,1.4,3.5,3.3,3.5c1,0,1.8-0.3,2.5-1
			c0.1-0.1,0.2-0.3,0.2-0.5c0-0.5-0.6-0.9-1.1-0.5c-0.5,0.4-1,0.7-1.6,0.7c-1,0-1.7-0.6-1.9-1.6h4.2C129.5,14,129.8,13.7,129.8,13.3
			z M126.6,11.2c1,0,1.5,0.8,1.7,1.6h-3.4C125.1,11.9,125.8,11.2,126.6,11.2z"/>
	</g>
</g>
</svg>
